name analog
datacolumns 19
datarows 43
range 0.259 0.28
endheader
time	ground_force_vx	ground_force_vy	ground_force_vz	ground_force_px	ground_force_py	ground_force_pz	l_ground_force_vx	l_ground_force_vy	l_ground_force_vz	l_ground_force_px	l_ground_force_py	l_ground_force_pz	ground_torque_x	ground_torque_y	ground_torque_z	l_ground_torque_x	l_ground_torque_y	l_ground_torque_z
0.259	-0.0	-0.0	-0.0	-30.244281768798828	6.865597248077393	-1002.695556640625	-0.0	-0.0	-0.0	-0.0	-0.0	-0.0	-0.0	-0.0	-0.0	-0.0	-0.0	-0.0
0.2595	-0.0	-0.0	-0.0	-30.244630813598636	7.394992351531982	-1009.381591796875	-0.0	-0.0	-0.0	-0.0	-0.0	-0.0	-0.0	-0.0	-0.0	-0.0	-0.0	-0.0
0.26	-0.0	-0.0	-0.0	-30.241323471069336	6.505481719970703	-1015.3779296875	-0.0	-0.0	-0.0	-0.0	-0.0	-0.0	-0.0	-0.0	-0.0	-0.0	-0.0	-0.0
0.2605	-0.0	-0.0	-0.0	-29.261493682861328	5.972629070281982	-1017.4989624023438	-0.0	-0.0	-0.0	-0.0	-0.0	-0.0	-0.0	-0.0	-0.0	-0.0	-0.0	-0.0
0.261	-0.0	-0.0	-0.0	-28.63618469238281	5.257916450500488	-1015.3984985351562	-0.0	-0.0	-0.0	-0.0	-0.0	-0.0	-0.0	-0.0	-0.0	-0.0	-0.0	-0.0
0.2615	-0.0	-0.0	-0.0	-27.298416137695312	4.90251350402832	-1016.8009643554688	-0.0	-0.0	-0.0	-0.0	-0.0	-0.0	-0.0	-0.0	-0.0	-0.0	-0.0	-0.0
0.262	-0.0	-0.0	-0.0	-26.226545333862305	4.635318279266357	-1011.8700561523438	-0.0	-0.0	-0.0	-0.0	-0.0	-0.0	-0.0	-0.0	-0.0	-0.0	-0.0	-0.0
0.2625	-0.0	-0.0	-0.0	-24.086626052856445	3.922160387039185	-1012.21875	-0.0	-0.0	-0.0	-0.0	-0.0	-0.0	-0.0	-0.0	-0.0	-0.0	-0.0	-0.0
0.263	-0.0	-0.0	-0.0	-22.302955627441406	3.833427667617798	-1008.6806030273438	-0.0	-0.0	-0.0	-0.0	-0.0	-0.0	-0.0	-0.0	-0.0	-0.0	-0.0	-0.0
0.2635	-0.0	-0.0	-0.0	-21.320945739746094	4.456337451934815	-1003.73779296875	-0.0	-0.0	-0.0	-0.0	-0.0	-0.0	-0.0	-0.0	-0.0	-0.0	-0.0	-0.0
0.264	-0.0	-0.0	-0.0	-19.626399993896484	5.080477237701416	-998.0877685546876	-0.0	-0.0	-0.0	-0.0	-0.0	-0.0	-0.0	-0.0	-0.0	-0.0	-0.0	-0.0
0.2645	-0.0	-0.0	-0.0	-18.46666145324707	4.6348958015441895	-994.2015380859376	-0.0	-0.0	-0.0	-0.0	-0.0	-0.0	-0.0	-0.0	-0.0	-0.0	-0.0	-0.0
0.265	-0.0	-0.0	-0.0	-18.02035140991211	5.793562412261963	-989.2576293945312	-0.0	-0.0	-0.0	-0.0	-0.0	-0.0	-0.0	-0.0	-0.0	-0.0	-0.0	-0.0
0.2655	-0.0	-0.0	-0.0	-17.931045532226562	6.86277437210083	-983.2550659179688	-0.0	-0.0	-0.0	-0.0	-0.0	-0.0	-0.0	-0.0	-0.0	-0.0	-0.0	-0.0
0.266	-0.0	-0.0	-0.0	-16.862436294555664	7.221417427062988	-978.6640625	-0.0	-0.0	-0.0	-0.0	-0.0	-0.0	-0.0	-0.0	-0.0	-0.0	-0.0	-0.0
0.2665	-0.0	-0.0	-0.0	-16.593408584594727	8.11086654663086	-975.1317749023438	-0.0	-0.0	-0.0	-0.0	-0.0	-0.0	-0.0	-0.0	-0.0	-0.0	-0.0	-0.0
0.267	-0.0	-0.0	-0.0	-15.88009262084961	8.734779357910156	-971.5992431640624	-0.0	-0.0	-0.0	-0.0	-0.0	-0.0	-0.0	-0.0	-0.0	-0.0	-0.0	-0.0
0.2675	-0.0	-0.0	-0.0	-15.610687255859377	9.89232349395752	-969.1211547851562	-0.0	-0.0	-0.0	-0.0	-0.0	-0.0	-0.0	-0.0	-0.0	-0.0	-0.0	-0.0
0.268	-0.0	-0.0	-0.0	-14.54303741455078	10.076043128967283	-964.548095703125	-0.0	-0.0	-0.0	-0.0	-0.0	-0.0	-0.0	-0.0	-0.0	-0.0	-0.0	-0.0
0.2685	-0.0	-0.0	-0.0	-14.272170066833496	10.962032318115234	-964.881591796875	-0.0	-0.0	-0.0	-0.0	-0.0	-0.0	-0.0	-0.0	-0.0	-0.0	-0.0	-0.0
0.269	-0.0	-0.0	-0.0	-13.563365936279297	11.586952209472656	-963.4904174804688	-0.0	-0.0	-0.0	-0.0	-0.0	-0.0	-0.0	-0.0	-0.0	-0.0	-0.0	-0.0
0.2695	-0.0	-0.0	-0.0	-13.01864242553711	11.588170051574709	-966.6510009765624	-0.0	-0.0	-0.0	-0.0	-0.0	-0.0	-0.0	-0.0	-0.0	-0.0	-0.0	-0.0
0.27	-0.0	-0.0	-0.0	-11.158817291259766	11.767257690429688	-965.2326049804688	-0.0	-0.0	-0.0	-0.0	-0.0	-0.0	-0.0	-0.0	-0.0	-0.0	-0.0	-0.0
0.2705	-0.0	-0.0	-0.0	-11.057665824890137	11.239296913146973	-967.7159423828124	-0.0	-0.0	-0.0	-0.0	-0.0	-0.0	-0.0	-0.0	-0.0	-0.0	-0.0	-0.0
0.271	-0.0	-0.0	-0.0	-10.882108688354492	12.030245780944824	-967.0285034179688	-0.0	-0.0	-0.0	-0.0	-0.0	-0.0	-0.0	-0.0	-0.0	-0.0	-0.0	-0.0
0.2715	-0.0	-0.0	-0.0	-10.43677043914795	12.114864349365234	-969.502685546875	-0.0	-0.0	-0.0	-0.0	-0.0	-0.0	-0.0	-0.0	-0.0	-0.0	-0.0	-0.0
0.272	-0.0	-0.0	-0.0	-10.433095932006836	11.943473815917969	-970.9095458984376	-0.0	-0.0	-0.0	-0.0	-0.0	-0.0	-0.0	-0.0	-0.0	-0.0	-0.0	-0.0
0.2725	-0.0	-0.0	-0.0	-10.344500541687012	12.739774703979492	-974.7533569335938	-0.0	-0.0	-0.0	-0.0	-0.0	-0.0	-0.0	-0.0	-0.0	-0.0	-0.0	-0.0
0.273	-0.0	-0.0	-0.0	-9.724982261657717	13.197516441345217	-973.6923828125	-0.0	-0.0	-0.0	-0.0	-0.0	-0.0	-0.0	-0.0	-0.0	-0.0	-0.0	-0.0
0.2735	-0.0	-0.0	-0.0	-9.543354034423828	13.901089668273926	-972.6661987304688	-0.0	-0.0	-0.0	-0.0	-0.0	-0.0	-0.0	-0.0	-0.0	-0.0	-0.0	-0.0
0.274	-0.0	-0.0	-0.0	-9.367103576660156	14.083760261535645	-974.7628784179688	-0.0	-0.0	-0.0	-0.0	-0.0	-0.0	-0.0	-0.0	-0.0	-0.0	-0.0	-0.0
0.2745	-0.0	-0.0	-0.0	-9.186251640319824	15.325571060180664	-975.802490234375	-0.0	-0.0	-0.0	-0.0	-0.0	-0.0	-0.0	-0.0	-0.0	-0.0	-0.0	-0.0
0.275	-0.0	-0.0	-0.0	-7.940998077392578	15.862688064575195	-977.9252319335938	-0.0	-0.0	-0.0	-0.0	-0.0	-0.0	-0.0	-0.0	-0.0	-0.0	-0.0	-0.0
0.2755	-0.0	-0.0	-0.0	-7.491011619567871	16.31353187561035	-976.927490234375	-0.0	-0.0	-0.0	-0.0	-0.0	-0.0	-0.0	-0.0	-0.0	-0.0	-0.0	-0.0
0.276	-0.0	-0.0	-0.0	-6.520664215087891	16.317771911621094	-980.0634155273438	-0.0	-0.0	-0.0	-0.0	-0.0	-0.0	-0.0	-0.0	-0.0	-0.0	-0.0	-0.0
0.2765	-0.0	-0.0	-0.0	-6.959875583648682	16.13842010498047	-984.2894287109376	-0.0	-0.0	-0.0	-0.0	-0.0	-0.0	-0.0	-0.0	-0.0	-0.0	-0.0	-0.0
0.277	-0.0	-0.0	-0.0	-6.4246697425842285	15.964923858642578	-983.9713134765624	-0.0	-0.0	-0.0	-0.0	-0.0	-0.0	-0.0	-0.0	-0.0	-0.0	-0.0	-0.0
0.2775	-0.0	-0.0	-0.0	-5.978664875030518	15.691628456115724	-989.9572143554688	-0.0	-0.0	-0.0	-0.0	-0.0	-0.0	-0.0	-0.0	-0.0	-0.0	-0.0	-0.0
0.278	-0.0	-0.0	-0.0	-5.977104187011719	14.716309547424316	-991.0294189453124	-0.0	-0.0	-0.0	-0.0	-0.0	-0.0	-0.0	-0.0	-0.0	-0.0	-0.0	-0.0
0.2785	-0.0	-0.0	-0.0	-6.333946228027344	14.428988456726074	-993.1419677734376	-0.0	-0.0	-0.0	-0.0	-0.0	-0.0	-0.0	-0.0	-0.0	-0.0	-0.0	-0.0
0.279	-0.0	-0.0	-0.0	-6.501938819885254	13.719136238098145	-995.5867309570312	-0.0	-0.0	-0.0	-0.0	-0.0	-0.0	-0.0	-0.0	-0.0	-0.0	-0.0	-0.0
0.2795	-0.0	-0.0	-0.0	-6.869209289550781	12.918479919433594	-996.6666870117188	-0.0	-0.0	-0.0	-0.0	-0.0	-0.0	-0.0	-0.0	-0.0	-0.0	-0.0	-0.0
0.28	-0.0	-0.0	-0.0	-7.480674743652344	11.236000061035156	-996.99755859375	-0.0	-0.0	-0.0	-0.0	-0.0	-0.0	-0.0	-0.0	-0.0	-0.0	-0.0	-0.0
